<?xml version="1.0" standalone="no"?>
<!DOCTYPE svg PUBLIC "-//W3C//DTD SVG 20010904//EN"
 "http://www.w3.org/TR/2001/REC-SVG-20010904/DTD/svg10.dtd">
<svg version="1.0" xmlns="http://www.w3.org/2000/svg"
 width="920.000000pt" height="920.000000pt" viewBox="0 0 920.000000 920.000000"
 preserveAspectRatio="xMidYMid meet">

<g transform="translate(0.000000,920.000000) scale(0.100000,-0.100000)"
fill="#000000" stroke="none">
<path d="M4275 9189 c-831 -66 -1550 -313 -2225 -762 -432 -288 -832 -667
-1136 -1077 -546 -736 -844 -1556 -905 -2486 -19 -291 4 -741 52 -1019 165
-958 608 -1815 1289 -2495 646 -647 1451 -1079 2345 -1259 579 -117 1235 -117
1810 0 900 183 1698 612 2345 1259 537 537 926 1181 1147 1900 296 966 264
2021 -90 2965 -336 896 -957 1677 -1757 2212 -773 516 -1660 779 -2600 772
-96 -1 -220 -5 -275 -10z m596 -789 c912 -71 1732 -438 2378 -1065 209 -203
364 -390 527 -636 579 -874 772 -1944 533 -2966 -233 -998 -862 -1862 -1746
-2396 -464 -281 -967 -452 -1543 -524 -188 -23 -652 -23 -840 0 -204 26 -309
45 -487 88 -926 226 -1733 794 -2266 1595 -365 548 -574 1161 -627 1833 -44
575 60 1205 289 1750 385 915 1126 1653 2047 2040 539 226 1156 326 1735 281z"/>
<path d="M4370 7011 l0 -339 -56 -7 c-70 -8 -232 -47 -315 -76 -152 -51 -342
-170 -440 -276 -215 -231 -309 -528 -296 -941 6 -200 24 -291 79 -395 36 -68
153 -196 238 -262 229 -175 721 -379 1280 -530 148 -41 186 -57 276 -120 96
-69 171 -156 190 -223 35 -118 -1 -334 -69 -423 -113 -148 -556 -202 -967
-118 -243 50 -466 162 -571 288 l-34 41 -288 -266 -287 -265 30 -45 c72 -104
218 -218 385 -302 177 -88 460 -175 710 -217 l130 -22 3 -331 2 -332 230 0
230 0 0 319 0 319 63 7 c309 32 561 135 802 328 364 291 525 614 525 1052 0
293 -69 519 -216 712 -150 195 -478 375 -919 503 -55 15 -171 49 -257 74 -270
78 -476 154 -573 211 -69 40 -124 104 -142 164 -49 169 67 317 292 372 77 19
118 22 290 22 355 0 514 -44 722 -199 l72 -54 227 248 c125 136 236 257 248
270 l20 22 -45 46 c-206 213 -597 366 -1041 409 l-68 7 0 334 0 334 -230 0
-230 0 0 -339z"/>
</g>
</svg>
