<?xml version="1.0" standalone="no"?>
<!DOCTYPE svg PUBLIC "-//W3C//DTD SVG 20010904//EN"
 "http://www.w3.org/TR/2001/REC-SVG-20010904/DTD/svg10.dtd">
<svg version="1.0" xmlns="http://www.w3.org/2000/svg"
 width="920.000000pt" height="512.000000pt" viewBox="0 0 920.000000 512.000000"
 preserveAspectRatio="xMidYMid meet">

<g transform="translate(0.000000,512.000000) scale(0.100000,-0.100000)"
fill="#000000" stroke="none">
<path d="M4420 5114 c-238 -21 -505 -78 -695 -148 -221 -82 -478 -222 -674
-369 -123 -92 -396 -364 -488 -487 -477 -639 -636 -1433 -439 -2194 45 -176
93 -301 181 -481 138 -281 260 -451 490 -680 219 -219 401 -353 655 -480 721
-361 1565 -365 2280 -9 279 139 448 261 675 489 230 229 352 399 490 680 165
335 245 654 261 1029 28 692 -228 1364 -711 1864 -220 229 -434 386 -710 522
-361 178 -681 256 -1080 264 -104 2 -210 2 -235 0z m435 -215 c412 -40 865
-226 1208 -495 113 -89 325 -308 415 -429 45 -60 82 -113 82 -118 0 -4 -15 -5
-32 -2 -86 14 -339 25 -583 25 -440 0 -849 -38 -1199 -110 -54 -11 -120 -20
-146 -20 -26 0 -92 9 -146 20 -350 72 -759 110 -1199 110 -244 0 -497 -11
-582 -25 -18 -3 -33 -2 -33 2 0 25 181 246 294 359 205 205 378 330 631 454
411 203 819 275 1290 229z m-2329 -1348 c85 -61 86 -63 218 -491 61 -197 155
-312 279 -339 337 -76 768 -74 1046 5 113 32 203 109 260 223 33 65 120 276
165 403 17 45 40 87 57 104 l29 28 26 -20 c19 -14 40 -57 78 -159 177 -472
259 -564 553 -621 110 -22 518 -25 663 -5 153 21 280 50 316 72 42 26 120 112
145 160 35 69 65 163 114 353 27 104 58 203 70 219 22 34 100 97 119 97 15 0
97 -208 135 -343 71 -252 94 -433 94 -747 1 -238 -6 -310 -44 -504 -60 -298
-220 -643 -418 -901 -63 -82 -250 -274 -342 -350 -284 -237 -653 -411 -1029
-484 -159 -31 -267 -41 -460 -41 -405 0 -741 81 -1095 263 -580 300 -1021 852
-1181 1480 -51 201 -65 302 -71 528 -10 372 34 640 160 966 41 107 54 133 66
133 4 0 26 -13 47 -29z"/>
<path d="M3470 1741 l0 -99 48 -40 c164 -136 399 -253 627 -312 421 -108 849
-67 1230 120 126 61 241 134 313 197 l43 38 -3 99 -3 99 -45 -38 c-177 -150
-464 -281 -728 -335 -210 -42 -494 -42 -704 0 -263 54 -550 185 -726 333 -24
21 -46 37 -48 37 -2 0 -4 -45 -4 -99z"/>
</g>
</svg>
